{
  "accessors": [
    {
      "bufferView": 2,
      "componentType": 5126,
      "count": 65532,
      "max": [
        4.198430061340332,
        6.770674705505371,
        10.12637996673584
      ],
      "min": [
        -3.1271839141845703,
        -3.835076093673706,
        -6.763299942016602
      ],
      "type": "VEC3"
    },
    {
      "bufferView": 2,
      "byteOffset": 786384,
      "componentType": 5126,
      "count": 65532,
      "max": [
        0.9999547004699707,
        0.9999942779541016,
        0.9999476671218872
      ],
      "min": [
        -0.9999655485153198,
        -0.9999934434890747,
        -0.9998807907104492
      ],
      "type": "VEC3"
    },
    {
      "bufferView": 1,
      "componentType": 5126,
      "count": 65532,
      "max": [
        0.9885274171829224,
        0.9992173314094543
      ],
      "min": [
        0.0008586440817452967,
        0.0039062488358467817
      ],
      "type": "VEC2"
    },
    {
      "bufferView": 0,
      "componentType": 5125,
      "count": 330813,
      "type": "SCALAR"
    },
    {
      "bufferView": 2,
      "byteOffset": 1572768,
      "componentType": 5126,
      "count": 65532,
      "max": [
        2.042248249053955,
        6.202533721923828,
        1.5060349702835083
      ],
      "min": [
        -4.960336208343506,
        -6.78562068939209,
        -9.950008392333984
      ],
      "type": "VEC3"
    },
    {
      "bufferView": 2,
      "byteOffset": 2359152,
      "componentType": 5126,
      "count": 65532,
      "max": [
        0.9999855756759644,
        0.999956488609314,
        0.999958336353302
      ],
      "min": [
        -0.9998708963394165,
        -0.9999141097068787,
        -0.9999338984489441
      ],
      "type": "VEC3"
    },
    {
      "bufferView": 1,
      "byteOffset": 524256,
      "componentType": 5126,
      "count": 65532,
      "max": [
        0.9862748980522156,
        0.9993022084236145
      ],
      "min": [
        0.00016891454288270324,
        0.00390625
      ],
      "type": "VEC2"
    },
    {
      "bufferView": 0,
      "byteOffset": 1323252,
      "componentType": 5125,
      "count": 325647,
      "type": "SCALAR"
    },
    {
      "bufferView": 2,
      "byteOffset": 3145536,
      "componentType": 5126,
      "count": 65532,
      "max": [
        0.9181147813796997,
        3.0453028678894043,
        -3.714447259902954
      ],
      "min": [
        -5.003653049468994,
        -6.2628583908081055,
        -10.168747901916504
      ],
      "type": "VEC3"
    },
    {
      "bufferView": 2,
      "byteOffset": 3931920,
      "componentType": 5126,
      "count": 65532,
      "max": [
        0.999994158744812,
        0.9999797940254211,
        0.9998739361763
      ],
      "min": [
        -0.9999933838844299,
        -0.9999364614486694,
        -0.9999949336051941
      ],
      "type": "VEC3"
    },
    {
      "bufferView": 1,
      "byteOffset": 1048512,
      "componentType": 5126,
      "count": 65532,
      "max": [
        0.9945815801620483,
        0.9997876286506653
      ],
      "min": [
        0.00017039169324561954,
        0.00390625
      ],
      "type": "VEC2"
    },
    {
      "bufferView": 0,
      "byteOffset": 2625840,
      "componentType": 5125,
      "count": 308754,
      "type": "SCALAR"
    },
    {
      "bufferView": 2,
      "byteOffset": 4718304,
      "componentType": 5126,
      "count": 65532,
      "max": [
        4.917500972747803,
        2.9494004249572754,
        9.270414352416992
      ],
      "min": [
        -2.5325546264648438,
        -7.21997594833374,
        -9.562763214111328
      ],
      "type": "VEC3"
    },
    {
      "bufferView": 2,
      "byteOffset": 5504688,
      "componentType": 5126,
      "count": 65532,
      "max": [
        0.9999842643737793,
        0.999988317489624,
        0.9999828934669495
      ],
      "min": [
        -0.9999903440475464,
        -0.9999602437019348,
        -0.9999878406524658
      ],
      "type": "VEC3"
    },
    {
      "bufferView": 1,
      "byteOffset": 1572768,
      "componentType": 5126,
      "count": 65532,
      "max": [
        0.995765209197998,
        0.9997630715370178
      ],
      "min": [
        0.0007304521859623492,
        0.01165101770311594
      ],
      "type": "VEC2"
    },
    {
      "bufferView": 0,
      "byteOffset": 3860856,
      "componentType": 5125,
      "count": 326601,
      "type": "SCALAR"
    },
    {
      "bufferView": 2,
      "byteOffset": 6291072,
      "componentType": 5126,
      "count": 65532,
      "max": [
        4.689624786376953,
        0.8747837543487549,
        9.564214706420898
      ],
      "min": [
        -2.1579723358154297,
        -7.379735469818115,
        -4.346323490142822
      ],
      "type": "VEC3"
    },
    {
      "bufferView": 2,
      "byteOffset": 7077456,
      "componentType": 5126,
      "count": 65532,
      "max": [
        0.9999507069587708,
        0.9998142719268799,
        0.9997830986976624
      ],
      "min": [
        -0.9999531507492065,
        -0.9999436140060425,
        -0.9999974370002747
      ],
      "type": "VEC3"
    },
    {
      "bufferView": 1,
      "byteOffset": 2097024,
      "componentType": 5126,
      "count": 65532,
      "max": [
        0.9955899119377136,
        0.9991642832756042
      ],
      "min": [
        0.0001567744475323707,
        0.030565714463591576
      ],
      "type": "VEC2"
    },
    {
      "bufferView": 0,
      "byteOffset": 5167260,
      "componentType": 5125,
      "count": 320190,
      "type": "SCALAR"
    },
    {
      "bufferView": 2,
      "byteOffset": 7863840,
      "componentType": 5126,
      "count": 65532,
      "max": [
        4.917279243469238,
        6.475006103515625,
        9.688928604125977
      ],
      "min": [
        -4.789151668548584,
        -7.316962718963623,
        -6.023011207580566
      ],
      "type": "VEC3"
    },
    {
      "bufferView": 2,
      "byteOffset": 8650224,
      "componentType": 5126,
      "count": 65532,
      "max": [
        0.9999496936798096,
        0.9996659755706787,
        0.9999873638153076
      ],
      "min": [
        -0.9999845027923584,
        -0.9999303221702576,
        -0.9999887943267822
      ],
      "type": "VEC3"
    },
    {
      "bufferView": 1,
      "byteOffset": 2621280,
      "componentType": 5126,
      "count": 65532,
      "max": [
        0.9962780475616455,
        0.9997406601905823
      ],
      "min": [
        1.4858287045171892e-08,
        0.00390625
      ],
      "type": "VEC2"
    },
    {
      "bufferView": 0,
      "byteOffset": 6448020,
      "componentType": 5125,
      "count": 300870,
      "type": "SCALAR"
    },
    {
      "bufferView": 2,
      "byteOffset": 9436608,
      "componentType": 5126,
      "count": 65532,
      "max": [
        3.330044984817505,
        9.23666763305664,
        -2.012326717376709
      ],
      "min": [
        -4.950850963592529,
        -5.842067718505859,
        -10.024703979492188
      ],
      "type": "VEC3"
    },
    {
      "bufferView": 2,
      "byteOffset": 10222992,
      "componentType": 5126,
      "count": 65532,
      "max": [
        0.9999319314956665,
        0.9999718070030212,
        0.9998677372932434
      ],
      "min": [
        -0.9999434351921082,
        -0.9999934434890747,
        -0.9999933838844299
      ],
      "type": "VEC3"
    },
    {
      "bufferView": 1,
      "byteOffset": 3145536,
      "componentType": 5126,
      "count": 65532,
      "max": [
        0.9964749217033386,
        0.9996719360351563
      ],
      "min": [
        3.289239436377045e-10,
        0.0035349454265087843
      ],
      "type": "VEC2"
    },
    {
      "bufferView": 0,
      "byteOffset": 7651500,
      "componentType": 5125,
      "count": 278796,
      "type": "SCALAR"
    },
    {
      "bufferView": 2,
      "byteOffset": 11009376,
      "componentType": 5126,
      "count": 65532,
      "max": [
        4.248457908630371,
        0.5588915944099426,
        6.66259765625
      ],
      "min": [
        -5.003537654876709,
        -6.372316360473633,
        -10.167553901672363
      ],
      "type": "VEC3"
    },
    {
      "bufferView": 2,
      "byteOffset": 11795760,
      "componentType": 5126,
      "count": 65532,
      "max": [
        0.999994158744812,
        0.9999913573265076,
        0.9999563097953796
      ],
      "min": [
        -0.9999784231185913,
        -0.9999662637710571,
        -0.9999886751174927
      ],
      "type": "VEC3"
    },
    {
      "bufferView": 1,
      "byteOffset": 3669792,
      "componentType": 5126,
      "count": 65532,
      "max": [
        0.9957932829856873,
        0.9997734427452087
      ],
      "min": [
        4.061205981997773e-05,
        0.003906246740370989
      ],
      "type": "VEC2"
    },
    {
      "bufferView": 0,
      "byteOffset": 8766684,
      "componentType": 5125,
      "count": 256290,
      "type": "SCALAR"
    },
    {
      "bufferView": 2,
      "byteOffset": 12582144,
      "componentType": 5126,
      "count": 65532,
      "max": [
        4.9085917472839355,
        -0.7730665802955627,
        9.688948631286621
      ],
      "min": [
        -2.46590256690979,
        -7.556489944458008,
        -4.557936191558838
      ],
      "type": "VEC3"
    },
    {
      "bufferView": 2,
      "byteOffset": 13368528,
      "componentType": 5126,
      "count": 65532,
      "max": [
        0.9999496936798096,
        0.9999455809593201,
        0.9999873638153076
      ],
      "min": [
        -0.9998857378959656,
        -0.9999333024024963,
        -0.9999678730964661
      ],
      "type": "VEC3"
    },
    {
      "bufferView": 1,
      "byteOffset": 4194048,
      "componentType": 5126,
      "count": 65532,
      "max": [
        0.9958803653717041,
        0.999803364276886
      ],
      "min": [
        0.00012694328324869275,
        0.027827028185129166
      ],
      "type": "VEC2"
    },
    {
      "bufferView": 0,
      "byteOffset": 9791844,
      "componentType": 5125,
      "count": 295734,
      "type": "SCALAR"
    },
    {
      "bufferView": 2,
      "byteOffset": 14154912,
      "componentType": 5126,
      "count": 65532,
      "max": [
        4.673836708068848,
        3.1098828315734863,
        10.126548767089844
      ],
      "min": [
        -2.3568196296691895,
        -7.207515716552734,
        -3.6658012866973877
      ],
      "type": "VEC3"
    },
    {
      "bufferView": 2,
      "byteOffset": 14941296,
      "componentType": 5126,
      "count": 65532,
      "max": [
        0.9999485015869141,
        0.9999597072601318,
        0.9999828934669495
      ],
      "min": [
        -0.9999825358390808,
        -0.999995768070221,
        -0.9999959468841553
      ],
      "type": "VEC3"
    },
    {
      "bufferView": 1,
      "byteOffset": 4718304,
      "componentType": 5126,
      "count": 65532,
      "max": [
        0.9974305033683777,
        0.9996731281280518
      ],
      "min": [
        2.4757295250310563e-05,
        0.0039062490686774254
      ],
      "type": "VEC2"
    },
    {
      "bufferView": 0,
      "byteOffset": 10974780,
      "componentType": 5125,
      "count": 288801,
      "type": "SCALAR"
    },
    {
      "bufferView": 2,
      "byteOffset": 15727680,
      "componentType": 5126,
      "count": 21956,
      "max": [
        4.750235080718994,
        2.955803155899048,
        6.993124008178711
      ],
      "min": [
        -2.4229509830474854,
        -6.067137718200684,
        -9.44118881225586
      ],
      "type": "VEC3"
    },
    {
      "bufferView": 2,
      "byteOffset": 15991152,
      "componentType": 5126,
      "count": 21956,
      "max": [
        0.9999624490737915,
        0.9999485611915588,
        0.9999292492866516
      ],
      "min": [
        -0.9999997615814209,
        -0.9998891353607178,
        -0.9998545050621033
      ],
      "type": "VEC3"
    },
    {
      "bufferView": 1,
      "byteOffset": 5242560,
      "componentType": 5126,
      "count": 21956,
      "max": [
        0.995204508304596,
        0.9997089505195618
      ],
      "min": [
        0.00011858632933581248,
        0.010283468291163445
      ],
      "type": "VEC2"
    },
    {
      "bufferView": 0,
      "byteOffset": 12129984,
      "componentType": 5125,
      "count": 95127,
      "type": "SCALAR"
    }
  ],
  "asset": {
    "extras": {
      "author": "johnnokomis (https://sketchfab.com/johnnokomis)",
      "license": "CC-BY-4.0 (http://creativecommons.org/licenses/by/4.0/)",
      "source": "https://sketchfab.com/3d-models/travis-pastrana-nitro-circus-dirt-bike-d536eec622954ebb9442817d1af777e4",
      "title": "Travis Pastrana Nitro Circus Dirt Bike"
    },
    "generator": "Sketchfab-15.12.0",
    "version": "2.0"
  },
  "bufferViews": [
    {
      "buffer": 0,
      "byteLength": 12510492,
      "name": "floatBufferViews",
      "target": 34963
    },
    {
      "buffer": 0,
      "byteLength": 5418208,
      "byteOffset": 12510492,
      "byteStride": 8,
      "name": "floatBufferViews",
      "target": 34962
    },
    {
      "buffer": 0,
      "byteLength": 16254624,
      "byteOffset": 17928700,
      "byteStride": 12,
      "name": "floatBufferViews",
      "target": 34962
    }
  ],
  "buffers": [
    {
      "byteLength": 34183324,
      "uri": "scene.bin"
    }
  ],
  "images": [
    {
      "uri": "textures/material0_baseColor.jpeg"
    }
  ],
  "materials": [
    {
      "doubleSided": true,
      "name": "material0",
      "pbrMetallicRoughness": {
        "baseColorTexture": {
          "index": 0
        },
        "metallicFactor": 0.0,
        "roughnessFactor": 0.6419036705635675
      }
    }
  ],
  "meshes": [
    {
      "name": "Model_material0_0",
      "primitives": [
        {
          "attributes": {
            "NORMAL": 1,
            "POSITION": 0,
            "TEXCOORD_0": 2
          },
          "indices": 3,
          "material": 0,
          "mode": 4
        }
      ]
    },
    {
      "name": "Model_material0_0",
      "primitives": [
        {
          "attributes": {
            "NORMAL": 5,
            "POSITION": 4,
            "TEXCOORD_0": 6
          },
          "indices": 7,
          "material": 0,
          "mode": 4
        }
      ]
    },
    {
      "name": "Model_material0_0",
      "primitives": [
        {
          "attributes": {
            "NORMAL": 9,
            "POSITION": 8,
            "TEXCOORD_0": 10
          },
          "indices": 11,
          "material": 0,
          "mode": 4
        }
      ]
    },
    {
      "name": "Model_material0_0",
      "primitives": [
        {
          "attributes": {
            "NORMAL": 13,
            "POSITION": 12,
            "TEXCOORD_0": 14
          },
          "indices": 15,
          "material": 0,
          "mode": 4
        }
      ]
    },
    {
      "name": "Model_material0_0",
      "primitives": [
        {
          "attributes": {
            "NORMAL": 17,
            "POSITION": 16,
            "TEXCOORD_0": 18
          },
          "indices": 19,
          "material": 0,
          "mode": 4
        }
      ]
    },
    {
      "name": "Model_material0_0",
      "primitives": [
        {
          "attributes": {
            "NORMAL": 21,
            "POSITION": 20,
            "TEXCOORD_0": 22
          },
          "indices": 23,
          "material": 0,
          "mode": 4
        }
      ]
    },
    {
      "name": "Model_material0_0",
      "primitives": [
        {
          "attributes": {
            "NORMAL": 25,
            "POSITION": 24,
            "TEXCOORD_0": 26
          },
          "indices": 27,
          "material": 0,
          "mode": 4
        }
      ]
    },
    {
      "name": "Model_material0_0",
      "primitives": [
        {
          "attributes": {
            "NORMAL": 29,
            "POSITION": 28,
            "TEXCOORD_0": 30
          },
          "indices": 31,
          "material": 0,
          "mode": 4
        }
      ]
    },
    {
      "name": "Model_material0_0",
      "primitives": [
        {
          "attributes": {
            "NORMAL": 33,
            "POSITION": 32,
            "TEXCOORD_0": 34
          },
          "indices": 35,
          "material": 0,
          "mode": 4
        }
      ]
    },
    {
      "name": "Model_material0_0",
      "primitives": [
        {
          "attributes": {
            "NORMAL": 37,
            "POSITION": 36,
            "TEXCOORD_0": 38
          },
          "indices": 39,
          "material": 0,
          "mode": 4
        }
      ]
    },
    {
      "name": "Model_material0_0",
      "primitives": [
        {
          "attributes": {
            "NORMAL": 41,
            "POSITION": 40,
            "TEXCOORD_0": 42
          },
          "indices": 43,
          "material": 0,
          "mode": 4
        }
      ]
    }
  ],
  "nodes": [
    {
      "children": [
        1
      ],
      "matrix": [
        0.5233138203620911,
        -0.05794639885425549,
        -0.8501675128936768,
        0.0,
        0.062203604727983475,
        -0.9924259185791016,
        0.10593149065971352,
        0.0,
        -0.8498666882514954,
        -0.10831890255212773,
        -0.5157457590103149,
        0.0,
        0.0,
        0.0,
        0.0,
        1.0
      ],
      "name": "Sketchfab_model"
    },
    {
      "children": [
        2
      ],
      "matrix": [
        1.0,
        0.0,
        0.0,
        0.0,
        0.0,
        -1.0,
        0.0,
        0.0,
        0.0,
        0.0,
        -1.0,
        0.0,
        0.0,
        0.0,
        0.0,
        1.0
      ],
      "name": "model.fbx"
    },
    {
      "children": [
        3
      ],
      "name": "RootNode"
    },
    {
      "children": [
        4,
        5,
        6,
        7,
        8,
        9,
        10,
        11,
        12,
        13,
        14
      ],
      "name": "Model"
    },
    {
      "mesh": 0,
      "name": "Model_material0_0"
    },
    {
      "mesh": 1,
      "name": "Model_material0_0"
    },
    {
      "mesh": 2,
      "name": "Model_material0_0"
    },
    {
      "mesh": 3,
      "name": "Model_material0_0"
    },
    {
      "mesh": 4,
      "name": "Model_material0_0"
    },
    {
      "mesh": 5,
      "name": "Model_material0_0"
    },
    {
      "mesh": 6,
      "name": "Model_material0_0"
    },
    {
      "mesh": 7,
      "name": "Model_material0_0"
    },
    {
      "mesh": 8,
      "name": "Model_material0_0"
    },
    {
      "mesh": 9,
      "name": "Model_material0_0"
    },
    {
      "mesh": 10,
      "name": "Model_material0_0"
    }
  ],
  "samplers": [
    {
      "magFilter": 9729,
      "minFilter": 9987,
      "wrapS": 10497,
      "wrapT": 10497
    }
  ],
  "scene": 0,
  "scenes": [
    {
      "name": "Sketchfab_Scene",
      "nodes": [
        0
      ]
    }
  ],
  "textures": [
    {
      "sampler": 0,
      "source": 0
    }
  ]
}
