{
  "accessors": [
    {
      "bufferView": 2,
      "componentType": 5126,
      "count": 65532,
      "max": [
        20.226354598999023,
        12.33938980102539,
        5.521355628967285
      ],
      "min": [
        1.1758058071136475,
        -6.680173873901367,
        -5.284296989440918
      ],
      "type": "VEC3"
    },
    {
      "bufferView": 2,
      "byteOffset": 786384,
      "componentType": 5126,
      "count": 65532,
      "max": [
        0.9999513030052185,
        0.999989926815033,
        0.9999723434448242
      ],
      "min": [
        -0.9999082684516907,
        -0.9999491572380066,
        -0.999934732913971
      ],
      "type": "VEC3"
    },
    {
      "bufferView": 1,
      "componentType": 5126,
      "count": 65532,
      "max": [
        0.9999818205833435,
        0.998512864112854
      ],
      "min": [
        0.000504341151099652,
        0.0007003434002399445
      ],
      "type": "VEC2"
    },
    {
      "bufferView": 0,
      "componentType": 5125,
      "count": 316056,
      "type": "SCALAR"
    },
    {
      "bufferView": 2,
      "byteOffset": 1572768,
      "componentType": 5126,
      "count": 65532,
      "max": [
        17.21697425842285,
        6.574468612670898,
        8.202192306518555
      ],
      "min": [
        -4.4237961769104,
        -8.588404655456543,
        -4.5379533767700195
      ],
      "type": "VEC3"
    },
    {
      "bufferView": 2,
      "byteOffset": 2359152,
      "componentType": 5126,
      "count": 65532,
      "max": [
        0.9998948574066162,
        0.9999716281890869,
        0.9999922513961792
      ],
      "min": [
        -0.9999954700469971,
        -0.9999632239341736,
        -0.9999765157699585
      ],
      "type": "VEC3"
    },
    {
      "bufferView": 1,
      "byteOffset": 524256,
      "componentType": 5126,
      "count": 65532,
      "max": [
        0.9999949336051941,
        0.9998615384101868
      ],
      "min": [
        0.0016060401685535908,
        0.00022300347336567938
      ],
      "type": "VEC2"
    },
    {
      "bufferView": 0,
      "byteOffset": 1264224,
      "componentType": 5125,
      "count": 321933,
      "type": "SCALAR"
    },
    {
      "bufferView": 2,
      "byteOffset": 3145536,
      "componentType": 5126,
      "count": 65532,
      "max": [
        7.638391017913818,
        6.320209503173828,
        8.615633010864258
      ],
      "min": [
        -6.958118915557861,
        -7.118702411651611,
        0.4246719777584076
      ],
      "type": "VEC3"
    },
    {
      "bufferView": 2,
      "byteOffset": 3931920,
      "componentType": 5126,
      "count": 65532,
      "max": [
        0.9999994039535522,
        0.9999890327453613,
        0.9999721050262451
      ],
      "min": [
        -0.9999931454658508,
        -0.9999632239341736,
        -0.9999542236328125
      ],
      "type": "VEC3"
    },
    {
      "bufferView": 1,
      "byteOffset": 1048512,
      "componentType": 5126,
      "count": 65532,
      "max": [
        0.9999908804893494,
        0.9993862509727478
      ],
      "min": [
        3.229270805604756e-05,
        0.0004972117021679878
      ],
      "type": "VEC2"
    },
    {
      "bufferView": 0,
      "byteOffset": 2551956,
      "componentType": 5125,
      "count": 313119,
      "type": "SCALAR"
    },
    {
      "bufferView": 2,
      "byteOffset": 4718304,
      "componentType": 5126,
      "count": 65532,
      "max": [
        1.4012730121612549,
        3.9422152042388916,
        11.574235916137695
      ],
      "min": [
        -16.829328536987305,
        -15.152120590209961,
        -3.516348123550415
      ],
      "type": "VEC3"
    },
    {
      "bufferView": 2,
      "byteOffset": 5504688,
      "componentType": 5126,
      "count": 65532,
      "max": [
        0.9999963045120239,
        0.9999126195907593,
        0.9999971985816956
      ],
      "min": [
        -0.9999156594276428,
        -0.999996542930603,
        -0.9999012351036072
      ],
      "type": "VEC3"
    },
    {
      "bufferView": 1,
      "byteOffset": 1572768,
      "componentType": 5126,
      "count": 65532,
      "max": [
        0.999997079372406,
        0.9994792342185974
      ],
      "min": [
        0.0007199847605079412,
        0.002033750992268324
      ],
      "type": "VEC2"
    },
    {
      "bufferView": 0,
      "byteOffset": 3804432,
      "componentType": 5125,
      "count": 331428,
      "type": "SCALAR"
    },
    {
      "bufferView": 2,
      "byteOffset": 6291072,
      "componentType": 5126,
      "count": 65532,
      "max": [
        20.712854385375977,
        11.601442337036133,
        15.062248229980469
      ],
      "min": [
        -19.1000919342041,
        -5.812830448150635,
        -2.1785786151885986
      ],
      "type": "VEC3"
    },
    {
      "bufferView": 2,
      "byteOffset": 7077456,
      "componentType": 5126,
      "count": 65532,
      "max": [
        0.9999766945838928,
        0.9999629855155945,
        0.9999863505363464
      ],
      "min": [
        -0.9999979734420776,
        -0.9999874234199524,
        -0.999984860420227
      ],
      "type": "VEC3"
    },
    {
      "bufferView": 1,
      "byteOffset": 2097024,
      "componentType": 5126,
      "count": 65532,
      "max": [
        0.999964714050293,
        0.9989914894104004
      ],
      "min": [
        0.0004896774771623313,
        7.690605707466602e-05
      ],
      "type": "VEC2"
    },
    {
      "bufferView": 0,
      "byteOffset": 5130144,
      "componentType": 5125,
      "count": 311676,
      "type": "SCALAR"
    },
    {
      "bufferView": 2,
      "byteOffset": 7863840,
      "componentType": 5126,
      "count": 65532,
      "max": [
        19.458345413208008,
        12.33938980102539,
        5.383502960205078
      ],
      "min": [
        7.629467487335205,
        -6.7099385261535645,
        -5.284296989440918
      ],
      "type": "VEC3"
    },
    {
      "bufferView": 2,
      "byteOffset": 8650224,
      "componentType": 5126,
      "count": 65532,
      "max": [
        0.9999076724052429,
        0.9999579787254333,
        0.9999555349349976
      ],
      "min": [
        -0.9998354911804199,
        -0.9999575018882751,
        -0.9999769330024719
      ],
      "type": "VEC3"
    },
    {
      "bufferView": 1,
      "byteOffset": 2621280,
      "componentType": 5126,
      "count": 65532,
      "max": [
        0.9999780654907227,
        0.9998608827590942
      ],
      "min": [
        0.0005494838114827871,
        0.00012143980711698532
      ],
      "type": "VEC2"
    },
    {
      "bufferView": 0,
      "byteOffset": 6376848,
      "componentType": 5125,
      "count": 290793,
      "type": "SCALAR"
    },
    {
      "bufferView": 2,
      "byteOffset": 9436608,
      "componentType": 5126,
      "count": 65532,
      "max": [
        17.089200973510742,
        6.470005035400391,
        9.279781341552734
      ],
      "min": [
        -8.695901870727539,
        -12.97470474243164,
        -4.831894874572754
      ],
      "type": "VEC3"
    },
    {
      "bufferView": 2,
      "byteOffset": 10222992,
      "componentType": 5126,
      "count": 65532,
      "max": [
        0.9999690651893616,
        0.9999988079071045,
        0.9999142289161682
      ],
      "min": [
        -0.9999462366104126,
        -0.9999232888221741,
        -0.9999382495880127
      ],
      "type": "VEC3"
    },
    {
      "bufferView": 1,
      "byteOffset": 3145536,
      "componentType": 5126,
      "count": 65532,
      "max": [
        0.9999924898147583,
        0.9993181824684143
      ],
      "min": [
        9.049472282640636e-06,
        1.3985554687678814e-06
      ],
      "type": "VEC2"
    },
    {
      "bufferView": 0,
      "byteOffset": 7540020,
      "componentType": 5125,
      "count": 284049,
      "type": "SCALAR"
    },
    {
      "bufferView": 2,
      "byteOffset": 11009376,
      "componentType": 5126,
      "count": 65532,
      "max": [
        -2.4861276149749756,
        10.644432067871094,
        13.063283920288086
      ],
      "min": [
        -20.313566207885742,
        -9.685970306396484,
        1.0413378477096558
      ],
      "type": "VEC3"
    },
    {
      "bufferView": 2,
      "byteOffset": 11795760,
      "componentType": 5126,
      "count": 65532,
      "max": [
        0.999976396560669,
        0.9999298453330994,
        0.9999492764472961
      ],
      "min": [
        -0.9999433755874634,
        -0.9999363422393799,
        -0.9998780488967896
      ],
      "type": "VEC3"
    },
    {
      "bufferView": 1,
      "byteOffset": 3669792,
      "componentType": 5126,
      "count": 65532,
      "max": [
        0.9999876618385315,
        0.9999370574951172
      ],
      "min": [
        6.78476135362871e-05,
        3.6952318623661995e-05
      ],
      "type": "VEC2"
    },
    {
      "bufferView": 0,
      "byteOffset": 8676216,
      "componentType": 5125,
      "count": 297321,
      "type": "SCALAR"
    },
    {
      "bufferView": 2,
      "byteOffset": 12582144,
      "componentType": 5126,
      "count": 65532,
      "max": [
        0.4407275319099426,
        11.589847564697266,
        15.121664047241211
      ],
      "min": [
        -18.116273880004883,
        -16.473058700561523,
        -3.3958017826080322
      ],
      "type": "VEC3"
    },
    {
      "bufferView": 2,
      "byteOffset": 13368528,
      "componentType": 5126,
      "count": 65532,
      "max": [
        0.9999889135360718,
        0.9999375343322754,
        0.9998758435249329
      ],
      "min": [
        -0.9999092817306519,
        -0.9999160766601563,
        -0.9999160170555115
      ],
      "type": "VEC3"
    },
    {
      "bufferView": 1,
      "byteOffset": 4194048,
      "componentType": 5126,
      "count": 65532,
      "max": [
        0.9999768733978271,
        0.9999050498008728
      ],
      "min": [
        6.759673124179244e-05,
        9.373901411890984e-05
      ],
      "type": "VEC2"
    },
    {
      "bufferView": 0,
      "byteOffset": 9865500,
      "componentType": 5125,
      "count": 285330,
      "type": "SCALAR"
    },
    {
      "bufferView": 2,
      "byteOffset": 14154912,
      "componentType": 5126,
      "count": 57307,
      "max": [
        7.539135456085205,
        6.194131851196289,
        8.665164947509766
      ],
      "min": [
        -6.436423301696777,
        -6.731431484222412,
        0.14361366629600525
      ],
      "type": "VEC3"
    },
    {
      "bufferView": 2,
      "byteOffset": 14842596,
      "componentType": 5126,
      "count": 57307,
      "max": [
        0.9999004602432251,
        0.9999902844429016,
        0.9999936819076538
      ],
      "min": [
        -0.9999649524688721,
        -0.9999884366989136,
        -0.999893069267273
      ],
      "type": "VEC3"
    },
    {
      "bufferView": 1,
      "byteOffset": 4718304,
      "componentType": 5126,
      "count": 57307,
      "max": [
        0.9999989867210388,
        0.9994335174560547
      ],
      "min": [
        8.355907630175352e-05,
        8.060713298618793e-05
      ],
      "type": "VEC2"
    },
    {
      "bufferView": 0,
      "byteOffset": 11006820,
      "componentType": 5125,
      "count": 248295,
      "type": "SCALAR"
    }
  ],
  "asset": {
    "extras": {
      "author": "johnnokomis (https://sketchfab.com/johnnokomis)",
      "license": "CC-BY-4.0 (http://creativecommons.org/licenses/by/4.0/)",
      "source": "https://sketchfab.com/3d-models/crf250r-16cdb451223b4482bd8d9872fe90aeeb",
      "title": "CRF250R"
    },
    "generator": "Sketchfab-14.87.0",
    "version": "2.0"
  },
  "bufferViews": [
    {
      "buffer": 0,
      "byteLength": 12000000,
      "name": "floatBufferViews",
      "target": 34963
    },
    {
      "buffer": 0,
      "byteLength": 5176760,
      "byteOffset": 12000000,
      "byteStride": 8,
      "name": "floatBufferViews",
      "target": 34962
    },
    {
      "buffer": 0,
      "byteLength": 15530280,
      "byteOffset": 17176760,
      "byteStride": 12,
      "name": "floatBufferViews",
      "target": 34962
    }
  ],
  "buffers": [
    {
      "byteLength": 32707040,
      "uri": "scene.bin"
    }
  ],
  "extensionsUsed": [
    "KHR_materials_unlit"
  ],
  "images": [
    {
      "uri": "textures/material0_baseColor.jpeg"
    }
  ],
  "materials": [
    {
      "doubleSided": true,
      "extensions": {
        "KHR_materials_unlit": {}
      },
      "name": "material0",
      "pbrMetallicRoughness": {
        "baseColorTexture": {
          "index": 0
        },
        "metallicFactor": 0.0
      }
    }
  ],
  "meshes": [
    {
      "name": "Model_material0_0",
      "primitives": [
        {
          "attributes": {
            "NORMAL": 1,
            "POSITION": 0,
            "TEXCOORD_0": 2
          },
          "indices": 3,
          "material": 0,
          "mode": 4
        }
      ]
    },
    {
      "name": "Model_material0_0",
      "primitives": [
        {
          "attributes": {
            "NORMAL": 5,
            "POSITION": 4,
            "TEXCOORD_0": 6
          },
          "indices": 7,
          "material": 0,
          "mode": 4
        }
      ]
    },
    {
      "name": "Model_material0_0",
      "primitives": [
        {
          "attributes": {
            "NORMAL": 9,
            "POSITION": 8,
            "TEXCOORD_0": 10
          },
          "indices": 11,
          "material": 0,
          "mode": 4
        }
      ]
    },
    {
      "name": "Model_material0_0",
      "primitives": [
        {
          "attributes": {
            "NORMAL": 13,
            "POSITION": 12,
            "TEXCOORD_0": 14
          },
          "indices": 15,
          "material": 0,
          "mode": 4
        }
      ]
    },
    {
      "name": "Model_material0_0",
      "primitives": [
        {
          "attributes": {
            "NORMAL": 17,
            "POSITION": 16,
            "TEXCOORD_0": 18
          },
          "indices": 19,
          "material": 0,
          "mode": 4
        }
      ]
    },
    {
      "name": "Model_material0_0",
      "primitives": [
        {
          "attributes": {
            "NORMAL": 21,
            "POSITION": 20,
            "TEXCOORD_0": 22
          },
          "indices": 23,
          "material": 0,
          "mode": 4
        }
      ]
    },
    {
      "name": "Model_material0_0",
      "primitives": [
        {
          "attributes": {
            "NORMAL": 25,
            "POSITION": 24,
            "TEXCOORD_0": 26
          },
          "indices": 27,
          "material": 0,
          "mode": 4
        }
      ]
    },
    {
      "name": "Model_material0_0",
      "primitives": [
        {
          "attributes": {
            "NORMAL": 29,
            "POSITION": 28,
            "TEXCOORD_0": 30
          },
          "indices": 31,
          "material": 0,
          "mode": 4
        }
      ]
    },
    {
      "name": "Model_material0_0",
      "primitives": [
        {
          "attributes": {
            "NORMAL": 33,
            "POSITION": 32,
            "TEXCOORD_0": 34
          },
          "indices": 35,
          "material": 0,
          "mode": 4
        }
      ]
    },
    {
      "name": "Model_material0_0",
      "primitives": [
        {
          "attributes": {
            "NORMAL": 37,
            "POSITION": 36,
            "TEXCOORD_0": 38
          },
          "indices": 39,
          "material": 0,
          "mode": 4
        }
      ]
    }
  ],
  "nodes": [
    {
      "children": [
        1
      ],
      "matrix": [
        0.9479396939277649,
        -0.05971820279955857,
        -0.3128003478050232,
        0.0,
        -0.02193296141922474,
        0.9676833748817445,
        -0.25121274590492226,
        0.0,
        0.31769365072250366,
        0.24499519169330577,
        0.9159956574440002,
        0.0,
        0.0,
        0.0,
        0.0,
        1.0
      ],
      "name": "Sketchfab_model"
    },
    {
      "children": [
        2
      ],
      "matrix": [
        1.0,
        0.0,
        0.0,
        0.0,
        0.0,
        -1.0,
        0.0,
        0.0,
        0.0,
        0.0,
        -1.0,
        0.0,
        0.0,
        0.0,
        0.0,
        1.0
      ],
      "name": "model.fbx"
    },
    {
      "children": [
        3
      ],
      "name": "RootNode"
    },
    {
      "children": [
        4,
        5,
        6,
        7,
        8,
        9,
        10,
        11,
        12,
        13
      ],
      "name": "Model"
    },
    {
      "mesh": 0,
      "name": "Model_material0_0"
    },
    {
      "mesh": 1,
      "name": "Model_material0_0"
    },
    {
      "mesh": 2,
      "name": "Model_material0_0"
    },
    {
      "mesh": 3,
      "name": "Model_material0_0"
    },
    {
      "mesh": 4,
      "name": "Model_material0_0"
    },
    {
      "mesh": 5,
      "name": "Model_material0_0"
    },
    {
      "mesh": 6,
      "name": "Model_material0_0"
    },
    {
      "mesh": 7,
      "name": "Model_material0_0"
    },
    {
      "mesh": 8,
      "name": "Model_material0_0"
    },
    {
      "mesh": 9,
      "name": "Model_material0_0"
    }
  ],
  "samplers": [
    {
      "magFilter": 9729,
      "minFilter": 9987,
      "wrapS": 10497,
      "wrapT": 10497
    }
  ],
  "scene": 0,
  "scenes": [
    {
      "name": "Sketchfab_Scene",
      "nodes": [
        0
      ]
    }
  ],
  "textures": [
    {
      "sampler": 0,
      "source": 0
    }
  ]
}
