{
  "accessors": [
    {
      "bufferView": 2,
      "componentType": 5126,
      "count": 65532,
      "max": [
        12.032219886779785,
        13.397459030151367,
        14.901036262512207
      ],
      "min": [
        -9.662534713745117,
        -12.002899169921875,
        1.075113296508789
      ],
      "type": "VEC3"
    },
    {
      "bufferView": 2,
      "byteOffset": 786384,
      "componentType": 5126,
      "count": 65532,
      "max": [
        0.9999992847442627,
        0.9999997615814209,
        0.9999999403953552
      ],
      "min": [
        -0.9999895095825195,
        -1.0,
        -0.9999843239784241
      ],
      "type": "VEC3"
    },
    {
      "bufferView": 1,
      "componentType": 5126,
      "count": 65532,
      "max": [
        0.9994986057281494,
        0.9897459745407104
      ],
      "min": [
        0.00048828125,
        0.0004894925514236093
      ],
      "type": "VEC2"
    },
    {
      "bufferView": 0,
      "componentType": 5125,
      "count": 243558,
      "type": "SCALAR"
    },
    {
      "bufferView": 2,
      "byteOffset": 1572768,
      "componentType": 5126,
      "count": 65532,
      "max": [
        12.024577140808105,
        13.39718246459961,
        11.145931243896484
      ],
      "min": [
        -9.970568656921387,
        -12.047368049621582,
        1.0340142250061035
      ],
      "type": "VEC3"
    },
    {
      "bufferView": 2,
      "byteOffset": 2359152,
      "componentType": 5126,
      "count": 65532,
      "max": [
        0.9999998211860657,
        0.999999463558197,
        0.9999999403953552
      ],
      "min": [
        -0.999749481678009,
        -1.0,
        -0.9999955892562866
      ],
      "type": "VEC3"
    },
    {
      "bufferView": 1,
      "byteOffset": 524256,
      "componentType": 5126,
      "count": 65532,
      "max": [
        0.9994855523109436,
        0.9936522245407104
      ],
      "min": [
        0.00048828125,
        0.0004982544342055917
      ],
      "type": "VEC2"
    },
    {
      "bufferView": 0,
      "byteOffset": 974232,
      "componentType": 5125,
      "count": 231678,
      "type": "SCALAR"
    },
    {
      "bufferView": 2,
      "byteOffset": 3145536,
      "componentType": 5126,
      "count": 65532,
      "max": [
        12.0322847366333,
        13.292901992797852,
        9.381135940551758
      ],
      "min": [
        -9.971643447875977,
        -12.132339477539063,
        1.0340142250061035
      ],
      "type": "VEC3"
    },
    {
      "bufferView": 2,
      "byteOffset": 3931920,
      "componentType": 5126,
      "count": 65532,
      "max": [
        0.9999995827674866,
        1.0,
        0.999999463558197
      ],
      "min": [
        -0.9999943375587463,
        -0.9999967813491821,
        -0.9999700784683228
      ],
      "type": "VEC3"
    },
    {
      "bufferView": 1,
      "byteOffset": 1048512,
      "componentType": 5126,
      "count": 65532,
      "max": [
        0.999508261680603,
        0.9916990995407104
      ],
      "min": [
        0.00048828125,
        0.0004958106437698007
      ],
      "type": "VEC2"
    },
    {
      "bufferView": 0,
      "byteOffset": 1900944,
      "componentType": 5125,
      "count": 230070,
      "type": "SCALAR"
    },
    {
      "bufferView": 2,
      "byteOffset": 4718304,
      "componentType": 5126,
      "count": 65532,
      "max": [
        12.032790184020996,
        13.397183418273926,
        14.901103973388672
      ],
      "min": [
        -9.662534713745117,
        -11.923325538635254,
        1.0237889289855957
      ],
      "type": "VEC3"
    },
    {
      "bufferView": 2,
      "byteOffset": 5504688,
      "componentType": 5126,
      "count": 65532,
      "max": [
        0.9999990463256836,
        0.9999998807907104,
        0.9999997019767761
      ],
      "min": [
        -0.9999905228614807,
        -0.9999711513519287,
        -0.9999749064445496
      ],
      "type": "VEC3"
    },
    {
      "bufferView": 1,
      "byteOffset": 1572768,
      "componentType": 5126,
      "count": 65532,
      "max": [
        0.9995028376579285,
        0.9936522245407104
      ],
      "min": [
        0.00048828125,
        0.0004915191093459725
      ],
      "type": "VEC2"
    },
    {
      "bufferView": 0,
      "byteOffset": 2821224,
      "componentType": 5125,
      "count": 176511,
      "type": "SCALAR"
    },
    {
      "bufferView": 2,
      "byteOffset": 6291072,
      "componentType": 5126,
      "count": 7609,
      "max": [
        12.032439231872559,
        13.362053871154785,
        12.86803913116455
      ],
      "min": [
        -6.524109840393066,
        -11.962316513061523,
        1.1758109331130981
      ],
      "type": "VEC3"
    },
    {
      "bufferView": 2,
      "byteOffset": 6382380,
      "componentType": 5126,
      "count": 7609,
      "max": [
        0.9999977946281433,
        0.9999983310699463,
        0.9999989867210388
      ],
      "min": [
        -0.9999973177909851,
        -0.9999973773956299,
        -0.9995419979095459
      ],
      "type": "VEC3"
    },
    {
      "bufferView": 1,
      "byteOffset": 2097024,
      "componentType": 5126,
      "count": 7609,
      "max": [
        0.9995018243789673,
        0.9858397245407104
      ],
      "min": [
        0.00048828125,
        0.0006974531570449471
      ],
      "type": "VEC2"
    },
    {
      "bufferView": 0,
      "byteOffset": 3527268,
      "componentType": 5125,
      "count": 17784,
      "type": "SCALAR"
    }
  ],
  "asset": {
    "extras": {
      "author": "John Bolton (https://sketchfab.com/not_lob)",
      "license": "CC-BY-4.0 (http://creativecommons.org/licenses/by/4.0/)",
      "source": "https://sketchfab.com/3d-models/james-street-north-graffiti-e53406351d2d4ce99cdf8e3348fde83b",
      "title": "James Street North Graffiti"
    },
    "generator": "Sketchfab-12.67.0",
    "version": "2.0"
  },
  "bufferViews": [
    {
      "buffer": 0,
      "byteLength": 3598404,
      "name": "floatBufferViews",
      "target": 34963
    },
    {
      "buffer": 0,
      "byteLength": 2157896,
      "byteOffset": 3598404,
      "byteStride": 8,
      "name": "floatBufferViews",
      "target": 34962
    },
    {
      "buffer": 0,
      "byteLength": 6473688,
      "byteOffset": 5756300,
      "byteStride": 12,
      "name": "floatBufferViews",
      "target": 34962
    }
  ],
  "buffers": [
    {
      "byteLength": 12229988,
      "uri": "scene.bin"
    }
  ],
  "extensionsUsed": [
    "KHR_materials_unlit"
  ],
  "images": [
    {
      "uri": "textures/tex_u1_v1_baseColor.jpeg"
    }
  ],
  "materials": [
    {
      "doubleSided": true,
      "extensions": {
        "KHR_materials_unlit": {}
      },
      "name": "tex_u1_v1",
      "pbrMetallicRoughness": {
        "baseColorTexture": {
          "index": 0
        },
        "metallicFactor": 0.0
      }
    }
  ],
  "meshes": [
    {
      "name": "Object_0",
      "primitives": [
        {
          "attributes": {
            "NORMAL": 1,
            "POSITION": 0,
            "TEXCOORD_0": 2
          },
          "indices": 3,
          "material": 0,
          "mode": 4
        }
      ]
    },
    {
      "name": "Object_1",
      "primitives": [
        {
          "attributes": {
            "NORMAL": 5,
            "POSITION": 4,
            "TEXCOORD_0": 6
          },
          "indices": 7,
          "material": 0,
          "mode": 4
        }
      ]
    },
    {
      "name": "Object_2",
      "primitives": [
        {
          "attributes": {
            "NORMAL": 9,
            "POSITION": 8,
            "TEXCOORD_0": 10
          },
          "indices": 11,
          "material": 0,
          "mode": 4
        }
      ]
    },
    {
      "name": "Object_3",
      "primitives": [
        {
          "attributes": {
            "NORMAL": 13,
            "POSITION": 12,
            "TEXCOORD_0": 14
          },
          "indices": 15,
          "material": 0,
          "mode": 4
        }
      ]
    },
    {
      "name": "Object_4",
      "primitives": [
        {
          "attributes": {
            "NORMAL": 17,
            "POSITION": 16,
            "TEXCOORD_0": 18
          },
          "indices": 19,
          "material": 0,
          "mode": 4
        }
      ]
    }
  ],
  "nodes": [
    {
      "children": [
        1
      ],
      "matrix": [
        -1.0,
        -1.60812262295773e-16,
        2.8327693431939985e-16,
        0.0,
        2.832769343193999e-16,
        -2.2204460492503128e-16,
        1.0,
        0.0,
        -1.6081226229577292e-16,
        1.0,
        2.2204460492503136e-16,
        0.0,
        2.0611162185668945,
        2.809275825610717e-16,
        -1.2651853561401367,
        1.0
      ],
      "name": "Sketchfab_model"
    },
    {
      "children": [
        2,
        3,
        4,
        5,
        6
      ],
      "name": "model.obj.cleaner.materialmerger.gles"
    },
    {
      "mesh": 0,
      "name": "Object_2"
    },
    {
      "mesh": 1,
      "name": "Object_3"
    },
    {
      "mesh": 2,
      "name": "Object_4"
    },
    {
      "mesh": 3,
      "name": "Object_5"
    },
    {
      "mesh": 4,
      "name": "Object_6"
    }
  ],
  "samplers": [
    {
      "magFilter": 9729,
      "minFilter": 9987,
      "wrapS": 10497,
      "wrapT": 10497
    }
  ],
  "scene": 0,
  "scenes": [
    {
      "name": "Sketchfab_Scene",
      "nodes": [
        0
      ]
    }
  ],
  "textures": [
    {
      "sampler": 0,
      "source": 0
    }
  ]
}
