{
  "accessors": [
    {
      "bufferView": 2,
      "componentType": 5126,
      "count": 357,
      "max": [
        5.635550022125244,
        35.77180099487305,
        4.9054999351501465
      ],
      "min": [
        -0.6772339940071106,
        17.796899795532227,
        2.0012199878692627
      ],
      "type": "VEC3"
    },
    {
      "bufferView": 2,
      "byteOffset": 4284,
      "componentType": 5126,
      "count": 357,
      "max": [
        0.9849545359611511,
        0.8767924904823303,
        0.978778064250946
      ],
      "min": [
        -0.9849545359611511,
        -0.9901633858680725,
        -0.9767717719078064
      ],
      "type": "VEC3"
    },
    {
      "bufferView": 1,
      "componentType": 5126,
      "count": 357,
      "max": [
        41.1234016418457,
        -49.8765983581543
      ],
      "min": [
        38.8765983581543,
        -52.10390090942383
      ],
      "type": "VEC2"
    },
    {
      "bufferView": 0,
      "componentType": 5125,
      "count": 1212,
      "type": "SCALAR"
    },
    {
      "bufferView": 2,
      "byteOffset": 8568,
      "componentType": 5126,
      "count": 32,
      "max": [
        3.1138699054718018,
        36.12070083618164,
        1.8631800413131714
      ],
      "min": [
        1.7414799928665161,
        17.096599578857422,
        0.8587999939918518
      ],
      "type": "VEC3"
    },
    {
      "bufferView": 2,
      "byteOffset": 8952,
      "componentType": 5126,
      "count": 32,
      "max": [
        0.0,
        0.9353564381599426,
        0.711046040058136
      ],
      "min": [
        0.0,
        -0.9353564381599426,
        -0.711046040058136
      ],
      "type": "VEC3"
    },
    {
      "bufferView": 1,
      "byteOffset": 2856,
      "componentType": 5126,
      "count": 32,
      "max": [
        0.22016699612140656,
        0.35877999663352966
      ],
      "min": [
        0.0020210000220686197,
        0.2526400089263916
      ],
      "type": "VEC2"
    },
    {
      "bufferView": 0,
      "byteOffset": 4848,
      "componentType": 5125,
      "count": 72,
      "type": "SCALAR"
    },
    {
      "bufferView": 2,
      "byteOffset": 9336,
      "componentType": 5126,
      "count": 5659,
      "max": [
        6.520969867706299,
        33.54119873046875,
        2.549370050430298
      ],
      "min": [
        -1.6655299663543701,
        20.16069984436035,
        -2.3841900542720396e-07
      ],
      "type": "VEC3"
    },
    {
      "bufferView": 2,
      "byteOffset": 77244,
      "componentType": 5126,
      "count": 5659,
      "max": [
        0.9992258548736572,
        1.0,
        0.9999690055847168
      ],
      "min": [
        -0.9992258548736572,
        -1.0,
        -0.9947196841239929
      ],
      "type": "VEC3"
    },
    {
      "bufferView": 1,
      "byteOffset": 3112,
      "componentType": 5126,
      "count": 5659,
      "max": [
        1.9792399406433105,
        1.9985400438308716
      ],
      "min": [
        -0.008778000250458717,
        0.006115970201790333
      ],
      "type": "VEC2"
    },
    {
      "bufferView": 0,
      "byteOffset": 5136,
      "componentType": 5125,
      "count": 16800,
      "type": "SCALAR"
    },
    {
      "bufferView": 2,
      "byteOffset": 145152,
      "componentType": 5126,
      "count": 8537,
      "max": [
        6.3720598220825195,
        37.39149856567383,
        5.122829914093018
      ],
      "min": [
        -1.5167100429534912,
        16.603500366210938,
        0.09294559806585312
      ],
      "type": "VEC3"
    },
    {
      "bufferView": 2,
      "byteOffset": 247596,
      "componentType": 5126,
      "count": 8537,
      "max": [
        1.0,
        1.0,
        1.0
      ],
      "min": [
        -1.0,
        -1.0,
        -1.0
      ],
      "type": "VEC3"
    },
    {
      "bufferView": 1,
      "byteOffset": 48384,
      "componentType": 5126,
      "count": 8537,
      "max": [
        1.0010700225830078,
        0.9982200264930725
      ],
      "min": [
        0.004052999895066023,
        0.0005400180234573781
      ],
      "type": "VEC2"
    },
    {
      "bufferView": 0,
      "byteOffset": 72336,
      "componentType": 5125,
      "count": 32454,
      "type": "SCALAR"
    },
    {
      "bufferView": 2,
      "byteOffset": 350040,
      "componentType": 5126,
      "count": 2270,
      "max": [
        5.729629993438721,
        30.9158992767334,
        5.028830051422119
      ],
      "min": [
        -0.8742830157279968,
        19.90369987487793,
        1.7532700300216675
      ],
      "type": "VEC3"
    },
    {
      "bufferView": 2,
      "byteOffset": 377280,
      "componentType": 5126,
      "count": 2270,
      "max": [
        1.0,
        1.0,
        1.0
      ],
      "min": [
        -1.0,
        -1.0,
        -1.0
      ],
      "type": "VEC3"
    },
    {
      "bufferView": 1,
      "byteOffset": 116680,
      "componentType": 5126,
      "count": 2270,
      "max": [
        0.560634970664978,
        0.8310890197753906
      ],
      "min": [
        0.005241999868303537,
        0.15879200398921967
      ],
      "type": "VEC2"
    },
    {
      "bufferView": 0,
      "byteOffset": 202152,
      "componentType": 5125,
      "count": 7773,
      "type": "SCALAR"
    },
    {
      "bufferView": 2,
      "byteOffset": 404520,
      "componentType": 5126,
      "count": 808,
      "max": [
        5.456039905548096,
        35.78450012207031,
        3.4398300647735596
      ],
      "min": [
        -0.7961829900741577,
        30.045900344848633,
        1.9844800233840942
      ],
      "type": "VEC3"
    },
    {
      "bufferView": 2,
      "byteOffset": 414216,
      "componentType": 5126,
      "count": 808,
      "max": [
        1.0,
        1.0,
        1.0
      ],
      "min": [
        -1.0,
        -1.0,
        -0.9922183752059937
      ],
      "type": "VEC3"
    },
    {
      "bufferView": 1,
      "byteOffset": 134840,
      "componentType": 5126,
      "count": 808,
      "max": [
        0.9617180228233337,
        0.9864069819450378
      ],
      "min": [
        0.023075999692082405,
        0.10463300347328186
      ],
      "type": "VEC2"
    },
    {
      "bufferView": 0,
      "byteOffset": 233244,
      "componentType": 5125,
      "count": 3678,
      "type": "SCALAR"
    },
    {
      "bufferView": 2,
      "byteOffset": 423912,
      "componentType": 5126,
      "count": 1693,
      "max": [
        6.374189853668213,
        36.90489959716797,
        5.016290187835693
      ],
      "min": [
        -1.518839955329895,
        17.135000228881836,
        0.2321159988641739
      ],
      "type": "VEC3"
    },
    {
      "bufferView": 2,
      "byteOffset": 444228,
      "componentType": 5126,
      "count": 1693,
      "max": [
        1.0,
        1.0,
        1.0
      ],
      "min": [
        -1.0,
        -0.9995043277740479,
        -1.0
      ],
      "type": "VEC3"
    },
    {
      "bufferView": 1,
      "byteOffset": 141304,
      "componentType": 5126,
      "count": 1693,
      "max": [
        1.0048400163650513,
        0.7515339851379395
      ],
      "min": [
        0.0021019999403506517,
        0.0006359820254147053
      ],
      "type": "VEC2"
    },
    {
      "bufferView": 0,
      "byteOffset": 247956,
      "componentType": 5125,
      "count": 3897,
      "type": "SCALAR"
    }
  ],
  "asset": {
    "extras": {
      "author": "DisneyCars (https://sketchfab.com/supercarmodels)",
      "license": "CC-BY-4.0 (http://creativecommons.org/licenses/by/4.0/)",
      "source": "https://sketchfab.com/3d-models/1999-nissan-skyline-lbwk-super-silhouette-224e37db8cfb49b0be385e6864ad213b",
      "title": "1999 Nissan Skyline LBWK Super Silhouette"
    },
    "generator": "Sketchfab-16.51.0",
    "version": "2.0"
  },
  "bufferViews": [
    {
      "buffer": 0,
      "byteLength": 263544,
      "name": "floatBufferViews",
      "target": 34963
    },
    {
      "buffer": 0,
      "byteLength": 154848,
      "byteOffset": 263544,
      "byteStride": 8,
      "name": "floatBufferViews",
      "target": 34962
    },
    {
      "buffer": 0,
      "byteLength": 464544,
      "byteOffset": 418392,
      "byteStride": 12,
      "name": "floatBufferViews",
      "target": 34962
    }
  ],
  "buffers": [
    {
      "byteLength": 882936,
      "uri": "scene.bin"
    }
  ],
  "images": [
    {
      "uri": "textures/Bodyunrefunblend1004bodyunrefunblend10431Mtl_baseColor.png"
    },
    {
      "uri": "textures/Bodyunrefunblendbodyunrefunblend0431Mtl_baseColor.png"
    },
    {
      "uri": "textures/Bonnetunrefunblendbonnetunrefunblend0101Mtl_baseColor.png"
    },
    {
      "uri": "textures/Numberplatenumberplate0131Mtl_baseColor.png"
    },
    {
      "uri": "textures/Numberplatenumberplate0131Mtl_emissive.png"
    },
    {
      "uri": "textures/Puncheffnuminnernalpharefunblendalphaitapuncheffnum1Mtl_baseColor.png"
    },
    {
      "uri": "textures/Puncheffnuminnernalpharefunblendalphaitapuncheffnum1Mtl_emissive.png"
    }
  ],
  "materials": [
    {
      "doubleSided": true,
      "emissiveTexture": {
        "index": 0
      },
      "name": "Bodyunrefunblend1004bodyunrefunblend10431Mtl",
      "pbrMetallicRoughness": {
        "baseColorTexture": {
          "index": 0
        },
        "metallicFactor": 0.0,
        "roughnessFactor": 0.3307926829268293
      }
    },
    {
      "doubleSided": true,
      "emissiveTexture": {
        "index": 1
      },
      "name": "Bodyunrefunblendbodyunrefunblend0431Mtl",
      "pbrMetallicRoughness": {
        "baseColorTexture": {
          "index": 1
        },
        "metallicFactor": 0.0,
        "roughnessFactor": 0.0
      }
    },
    {
      "doubleSided": true,
      "emissiveTexture": {
        "index": 2
      },
      "name": "Bonnetunrefunblendbonnetunrefunblend0101Mtl",
      "pbrMetallicRoughness": {
        "baseColorTexture": {
          "index": 2
        },
        "metallicFactor": 0.0,
        "roughnessFactor": 0.0
      }
    },
    {
      "alphaMode": "BLEND",
      "doubleSided": true,
      "name": "Glassglass0151Mtl",
      "pbrMetallicRoughness": {
        "baseColorFactor": [
          0.3471510850534481,
          0.3471510850534481,
          0.3471510850534481,
          0.501961
        ],
        "roughnessFactor": 0.0
      }
    },
    {
      "alphaMode": "BLEND",
      "doubleSided": true,
      "emissiveTexture": {
        "index": 4
      },
      "name": "Numberplatenumberplate0131Mtl",
      "pbrMetallicRoughness": {
        "baseColorTexture": {
          "index": 3
        },
        "metallicFactor": 0.0
      }
    },
    {
      "alphaMode": "BLEND",
      "doubleSided": true,
      "emissiveTexture": {
        "index": 6
      },
      "name": "Puncheffnuminnernalpharefunblendalphaitapuncheffnum1Mtl",
      "pbrMetallicRoughness": {
        "baseColorTexture": {
          "index": 5
        },
        "metallicFactor": 0.0,
        "roughnessFactor": 0.0
      }
    }
  ],
  "meshes": [
    {
      "name": "Object_0",
      "primitives": [
        {
          "attributes": {
            "NORMAL": 1,
            "POSITION": 0,
            "TEXCOORD_0": 2
          },
          "indices": 3,
          "material": 3,
          "mode": 4
        }
      ]
    },
    {
      "name": "Object_1",
      "primitives": [
        {
          "attributes": {
            "NORMAL": 5,
            "POSITION": 4,
            "TEXCOORD_0": 6
          },
          "indices": 7,
          "material": 4,
          "mode": 4
        }
      ]
    },
    {
      "name": "Object_2",
      "primitives": [
        {
          "attributes": {
            "NORMAL": 9,
            "POSITION": 8,
            "TEXCOORD_0": 10
          },
          "indices": 11,
          "material": 0,
          "mode": 4
        }
      ]
    },
    {
      "name": "Object_3",
      "primitives": [
        {
          "attributes": {
            "NORMAL": 13,
            "POSITION": 12,
            "TEXCOORD_0": 14
          },
          "indices": 15,
          "material": 1,
          "mode": 4
        }
      ]
    },
    {
      "name": "Object_4",
      "primitives": [
        {
          "attributes": {
            "NORMAL": 17,
            "POSITION": 16,
            "TEXCOORD_0": 18
          },
          "indices": 19,
          "material": 1,
          "mode": 4
        }
      ]
    },
    {
      "name": "Object_5",
      "primitives": [
        {
          "attributes": {
            "NORMAL": 21,
            "POSITION": 20,
            "TEXCOORD_0": 22
          },
          "indices": 23,
          "material": 2,
          "mode": 4
        }
      ]
    },
    {
      "name": "Object_6",
      "primitives": [
        {
          "attributes": {
            "NORMAL": 25,
            "POSITION": 24,
            "TEXCOORD_0": 26
          },
          "indices": 27,
          "material": 5,
          "mode": 4
        }
      ]
    }
  ],
  "nodes": [
    {
      "children": [
        1
      ],
      "matrix": [
        1.0,
        0.0,
        0.0,
        0.0,
        0.0,
        2.220446049250313e-16,
        -1.0,
        0.0,
        0.0,
        1.0,
        2.220446049250313e-16,
        0.0,
        0.0,
        0.0,
        0.0,
        1.0
      ],
      "name": "Sketchfab_model"
    },
    {
      "children": [
        2,
        3,
        4,
        5,
        6,
        7,
        8
      ],
      "name": "1999 Nissan Skyline LBWK Super Silhouette.obj.cleaner.materialmerger.gles"
    },
    {
      "mesh": 0,
      "name": "Object_2"
    },
    {
      "mesh": 1,
      "name": "Object_3"
    },
    {
      "mesh": 2,
      "name": "Object_4"
    },
    {
      "mesh": 3,
      "name": "Object_5"
    },
    {
      "mesh": 4,
      "name": "Object_6"
    },
    {
      "mesh": 5,
      "name": "Object_7"
    },
    {
      "mesh": 6,
      "name": "Object_8"
    }
  ],
  "samplers": [
    {
      "magFilter": 9729,
      "minFilter": 9987,
      "wrapS": 10497,
      "wrapT": 10497
    }
  ],
  "scene": 0,
  "scenes": [
    {
      "name": "Sketchfab_Scene",
      "nodes": [
        0
      ]
    }
  ],
  "textures": [
    {
      "sampler": 0,
      "source": 0
    },
    {
      "sampler": 0,
      "source": 1
    },
    {
      "sampler": 0,
      "source": 2
    },
    {
      "sampler": 0,
      "source": 3
    },
    {
      "sampler": 0,
      "source": 4
    },
    {
      "sampler": 0,
      "source": 5
    },
    {
      "sampler": 0,
      "source": 6
    }
  ]
}
