{
  "accessors": [
    {
      "bufferView": 2,
      "componentType": 5126,
      "count": 4975,
      "max": [
        12.287099838256836,
        3.126499891281128,
        0.07895819842815399
      ],
      "min": [
        -9.613679885864258,
        -1.2938200235366821,
        -2.5182199478149414
      ],
      "type": "VEC3"
    },
    {
      "bufferView": 2,
      "byteOffset": 59700,
      "componentType": 5126,
      "count": 4975,
      "max": [
        0.9999663233757019,
        0.9701089262962341,
        0.9999999403953552
      ],
      "min": [
        -0.9999821782112122,
        -0.9999987483024597,
        -0.9998977780342102
      ],
      "type": "VEC3"
    },
    {
      "bufferView": 1,
      "componentType": 5126,
      "count": 4975,
      "max": [
        0.9955790042877197,
        0.9956669807434082
      ],
      "min": [
        0.004244999960064888,
        0.0055519999004900455
      ],
      "type": "VEC2"
    },
    {
      "bufferView": 0,
      "componentType": 5125,
      "count": 23148,
      "type": "SCALAR"
    },
    {
      "bufferView": 2,
      "byteOffset": 119400,
      "componentType": 5126,
      "count": 3419,
      "max": [
        12.286999702453613,
        3.118530035018921,
        0.07895819842815399
      ],
      "min": [
        -9.61365032196045,
        -1.2938200235366821,
        -2.464590072631836
      ],
      "type": "VEC3"
    },
    {
      "bufferView": 2,
      "byteOffset": 160428,
      "componentType": 5126,
      "count": 3419,
      "max": [
        0.999924898147583,
        0.788733720779419,
        1.0
      ],
      "min": [
        -0.9993739128112793,
        -1.0,
        -0.9025857448577881
      ],
      "type": "VEC3"
    },
    {
      "bufferView": 1,
      "byteOffset": 39800,
      "componentType": 5126,
      "count": 3419,
      "max": [
        0.9921119809150696,
        0.9958440065383911
      ],
      "min": [
        0.004267000127583742,
        0.004517000168561935
      ],
      "type": "VEC2"
    },
    {
      "bufferView": 0,
      "byteOffset": 92592,
      "componentType": 5125,
      "count": 15630,
      "type": "SCALAR"
    },
    {
      "bufferView": 2,
      "byteOffset": 201456,
      "componentType": 5126,
      "count": 1189,
      "max": [
        12.286999702453613,
        2.900369882583618,
        0.07895819842815399
      ],
      "min": [
        -9.613900184631348,
        -1.2941900491714478,
        -2.5182199478149414
      ],
      "type": "VEC3"
    },
    {
      "bufferView": 2,
      "byteOffset": 215724,
      "componentType": 5126,
      "count": 1189,
      "max": [
        0.9970817565917969,
        0.9421806335449219,
        0.9999979734420776
      ],
      "min": [
        -0.9998942613601685,
        -0.9999639987945557,
        -0.9999462366104126
      ],
      "type": "VEC3"
    },
    {
      "bufferView": 1,
      "byteOffset": 67152,
      "componentType": 5126,
      "count": 1189,
      "max": [
        0.9681259989738464,
        0.9958019852638245
      ],
      "min": [
        0.0041680000722408295,
        0.6734780073165894
      ],
      "type": "VEC2"
    },
    {
      "bufferView": 0,
      "byteOffset": 155112,
      "componentType": 5125,
      "count": 4269,
      "type": "SCALAR"
    }
  ],
  "asset": {
    "extras": {
      "author": "alban (https://sketchfab.com/alban)",
      "license": "CC-BY-4.0 (http://creativecommons.org/licenses/by/4.0/)",
      "source": "https://sketchfab.com/3d-models/day-146-mural-by-gianni-lee-b7034d7ce1cb4994af65132e15ad3b7b",
      "title": "Day 146: mural by Gianni Lee"
    },
    "generator": "Sketchfab-12.65.0",
    "version": "2.0"
  },
  "bufferViews": [
    {
      "buffer": 0,
      "byteLength": 172188,
      "name": "floatBufferViews",
      "target": 34963
    },
    {
      "buffer": 0,
      "byteLength": 76664,
      "byteOffset": 172188,
      "byteStride": 8,
      "name": "floatBufferViews",
      "target": 34962
    },
    {
      "buffer": 0,
      "byteLength": 229992,
      "byteOffset": 248852,
      "byteStride": 12,
      "name": "floatBufferViews",
      "target": 34962
    }
  ],
  "buffers": [
    {
      "byteLength": 478844,
      "uri": "scene.bin"
    }
  ],
  "extensionsUsed": [
    "KHR_materials_unlit"
  ],
  "images": [
    {
      "uri": "textures/cropped_textured_mesh_0_baseColor.jpeg"
    },
    {
      "uri": "textures/cropped_textured_mesh_1_baseColor.jpeg"
    },
    {
      "uri": "textures/cropped_textured_mesh_2_baseColor.jpeg"
    }
  ],
  "materials": [
    {
      "doubleSided": true,
      "extensions": {
        "KHR_materials_unlit": {}
      },
      "name": "cropped_textured_mesh_0",
      "pbrMetallicRoughness": {
        "baseColorTexture": {
          "index": 0
        },
        "metallicFactor": 0.0
      }
    },
    {
      "doubleSided": true,
      "extensions": {
        "KHR_materials_unlit": {}
      },
      "name": "cropped_textured_mesh_1",
      "pbrMetallicRoughness": {
        "baseColorTexture": {
          "index": 1
        },
        "metallicFactor": 0.0
      }
    },
    {
      "doubleSided": true,
      "extensions": {
        "KHR_materials_unlit": {}
      },
      "name": "cropped_textured_mesh_2",
      "pbrMetallicRoughness": {
        "baseColorTexture": {
          "index": 2
        },
        "metallicFactor": 0.0
      }
    }
  ],
  "meshes": [
    {
      "name": "Object_0",
      "primitives": [
        {
          "attributes": {
            "NORMAL": 1,
            "POSITION": 0,
            "TEXCOORD_0": 2
          },
          "indices": 3,
          "material": 0,
          "mode": 4
        }
      ]
    },
    {
      "name": "Object_1",
      "primitives": [
        {
          "attributes": {
            "NORMAL": 5,
            "POSITION": 4,
            "TEXCOORD_0": 6
          },
          "indices": 7,
          "material": 1,
          "mode": 4
        }
      ]
    },
    {
      "name": "Object_2",
      "primitives": [
        {
          "attributes": {
            "NORMAL": 9,
            "POSITION": 8,
            "TEXCOORD_0": 10
          },
          "indices": 11,
          "material": 2,
          "mode": 4
        }
      ]
    }
  ],
  "nodes": [
    {
      "children": [
        1
      ],
      "matrix": [
        0.9999356269836426,
        0.011348054744303226,
        2.519774332366437e-18,
        0.0,
        0.0,
        2.220446049250313e-16,
        -1.0,
        0.0,
        -0.011348054744303226,
        0.9999356269836426,
        2.220303112440464e-16,
        0.0,
        -0.01375432126224041,
        -0.015246259979903698,
        -3.3853497738220324e-18,
        1.0
      ],
      "name": "Sketchfab_model"
    },
    {
      "children": [
        2,
        3,
        4
      ],
      "name": "cropped_textured_mesh.obj.cleaner.materialmerger.gles"
    },
    {
      "mesh": 0,
      "name": "Object_2"
    },
    {
      "mesh": 1,
      "name": "Object_3"
    },
    {
      "mesh": 2,
      "name": "Object_4"
    }
  ],
  "samplers": [
    {
      "magFilter": 9729,
      "minFilter": 9987,
      "wrapS": 10497,
      "wrapT": 10497
    }
  ],
  "scene": 0,
  "scenes": [
    {
      "name": "Sketchfab_Scene",
      "nodes": [
        0
      ]
    }
  ],
  "textures": [
    {
      "sampler": 0,
      "source": 0
    },
    {
      "sampler": 0,
      "source": 1
    },
    {
      "sampler": 0,
      "source": 2
    }
  ]
}
