{
  "accessors": [
    {
      "bufferView": 2,
      "componentType": 5126,
      "count": 2270,
      "max": [
        -33.337398529052734,
        54.51179885864258,
        4.9033098220825195
      ],
      "min": [
        -40.98849868774414,
        35.649898529052734,
        0.36235201358795166
      ],
      "type": "VEC3"
    },
    {
      "bufferView": 2,
      "byteOffset": 27240,
      "componentType": 5126,
      "count": 2270,
      "max": [
        1.0,
        1.0,
        1.0
      ],
      "min": [
        -1.0,
        -1.0,
        -1.0
      ],
      "type": "VEC3"
    },
    {
      "bufferView": 1,
      "componentType": 5126,
      "count": 2270,
      "max": [
        1.0012999773025513,
        0.9972000122070313
      ],
      "min": [
        0.0052999998442828655,
        -0.0012999799801036716
      ],
      "type": "VEC2"
    },
    {
      "bufferView": 0,
      "componentType": 5125,
      "count": 5787,
      "type": "SCALAR"
    },
    {
      "bufferView": 2,
      "byteOffset": 54480,
      "componentType": 5126,
      "count": 128,
      "max": [
        -33.76499938964844,
        53.37990188598633,
        3.0533699989318848
      ],
      "min": [
        -40.56050109863281,
        36.78340148925781,
        1.9311699867248535
      ],
      "type": "VEC3"
    },
    {
      "bufferView": 2,
      "byteOffset": 56016,
      "componentType": 5126,
      "count": 128,
      "max": [
        0.880471408367157,
        0.8219353556632996,
        0.9077093005180359
      ],
      "min": [
        -0.880471408367157,
        -0.8172021508216858,
        0.2677503228187561
      ],
      "type": "VEC3"
    },
    {
      "bufferView": 1,
      "byteOffset": 18160,
      "componentType": 5126,
      "count": 128,
      "max": [
        0.9932000041007996,
        0.5321999788284302
      ],
      "min": [
        0.0071000000461936,
        0.0030000200495123863
      ],
      "type": "VEC2"
    },
    {
      "bufferView": 0,
      "byteOffset": 23148,
      "componentType": 5125,
      "count": 390,
      "type": "SCALAR"
    },
    {
      "bufferView": 2,
      "byteOffset": 57552,
      "componentType": 5126,
      "count": 5399,
      "max": [
        -33.12369918823242,
        54.23979949951172,
        4.793489933013916
      ],
      "min": [
        -41.20209884643555,
        36.265098571777344,
        0.3957290053367615
      ],
      "type": "VEC3"
    },
    {
      "bufferView": 2,
      "byteOffset": 122340,
      "componentType": 5126,
      "count": 5399,
      "max": [
        1.0,
        1.0,
        1.0
      ],
      "min": [
        -1.0,
        -1.0,
        -1.0
      ],
      "type": "VEC3"
    },
    {
      "bufferView": 1,
      "byteOffset": 19184,
      "componentType": 5126,
      "count": 5399,
      "max": [
        1.1192799806594849,
        -43.8765983581543
      ],
      "min": [
        -1.1192799806594849,
        -46.1234016418457
      ],
      "type": "VEC2"
    },
    {
      "bufferView": 0,
      "byteOffset": 24708,
      "componentType": 5125,
      "count": 17670,
      "type": "SCALAR"
    },
    {
      "bufferView": 2,
      "byteOffset": 187128,
      "componentType": 5126,
      "count": 4872,
      "max": [
        -33.12369918823242,
        54.23979949951172,
        4.793489933013916
      ],
      "min": [
        -41.20209884643555,
        36.265098571777344,
        0.3957290053367615
      ],
      "type": "VEC3"
    },
    {
      "bufferView": 2,
      "byteOffset": 245592,
      "componentType": 5126,
      "count": 4872,
      "max": [
        1.0,
        1.0,
        1.0
      ],
      "min": [
        -1.0,
        -1.0,
        -1.0
      ],
      "type": "VEC3"
    },
    {
      "bufferView": 1,
      "byteOffset": 62376,
      "componentType": 5126,
      "count": 4872,
      "max": [
        0.9977999925613403,
        0.9973999857902527
      ],
      "min": [
        0.002899999963119626,
        0.007899999618530273
      ],
      "type": "VEC2"
    },
    {
      "bufferView": 0,
      "byteOffset": 95388,
      "componentType": 5125,
      "count": 17670,
      "type": "SCALAR"
    },
    {
      "bufferView": 2,
      "byteOffset": 304056,
      "componentType": 5126,
      "count": 4280,
      "max": [
        -33.404701232910156,
        51.873199462890625,
        2.818350076675415
      ],
      "min": [
        -40.921199798583984,
        38.730098724365234,
        1.1920899822825959e-07
      ],
      "type": "VEC3"
    },
    {
      "bufferView": 2,
      "byteOffset": 355416,
      "componentType": 5126,
      "count": 4280,
      "max": [
        1.0,
        1.0,
        1.0
      ],
      "min": [
        -1.0,
        -1.0,
        -1.0
      ],
      "type": "VEC3"
    },
    {
      "bufferView": 1,
      "byteOffset": 101352,
      "componentType": 5126,
      "count": 4280,
      "max": [
        0.9940000176429749,
        0.9907000064849854
      ],
      "min": [
        0.009700000286102295,
        0.0013999900547787547
      ],
      "type": "VEC2"
    },
    {
      "bufferView": 0,
      "byteOffset": 166068,
      "componentType": 5125,
      "count": 12954,
      "type": "SCALAR"
    },
    {
      "bufferView": 2,
      "byteOffset": 406776,
      "componentType": 5126,
      "count": 167,
      "max": [
        -34.05220031738281,
        47.26689910888672,
        4.675980091094971
      ],
      "min": [
        -40.27330017089844,
        38.80099868774414,
        3.2354800701141357
      ],
      "type": "VEC3"
    },
    {
      "bufferView": 2,
      "byteOffset": 408780,
      "componentType": 5126,
      "count": 167,
      "max": [
        0.884636402130127,
        0.49574020504951477,
        0.9638320803642273
      ],
      "min": [
        -0.884636402130127,
        -0.47104117274284363,
        0.45811524987220764
      ],
      "type": "VEC3"
    },
    {
      "bufferView": 1,
      "byteOffset": 135592,
      "componentType": 5126,
      "count": 167,
      "max": [
        0.3801639974117279,
        -22.47089958190918
      ],
      "min": [
        -0.38011500239372253,
        -23.52910041809082
      ],
      "type": "VEC2"
    },
    {
      "bufferView": 0,
      "byteOffset": 217884,
      "componentType": 5125,
      "count": 606,
      "type": "SCALAR"
    },
    {
      "bufferView": 2,
      "byteOffset": 410784,
      "componentType": 5126,
      "count": 690,
      "max": [
        -33.332000732421875,
        54.51179885864258,
        4.675980091094971
      ],
      "min": [
        -40.99399948120117,
        36.71609878540039,
        0.3622649908065796
      ],
      "type": "VEC3"
    },
    {
      "bufferView": 2,
      "byteOffset": 419064,
      "componentType": 5126,
      "count": 690,
      "max": [
        1.0,
        1.0,
        0.999845027923584
      ],
      "min": [
        -1.0,
        -1.0,
        -1.0
      ],
      "type": "VEC3"
    },
    {
      "bufferView": 1,
      "byteOffset": 136928,
      "componentType": 5126,
      "count": 690,
      "max": [
        32.97380065917969,
        2.112230062484741
      ],
      "min": [
        19.58329963684082,
        -55.52909851074219
      ],
      "type": "VEC2"
    },
    {
      "bufferView": 0,
      "byteOffset": 220308,
      "componentType": 5125,
      "count": 1740,
      "type": "SCALAR"
    },
    {
      "bufferView": 2,
      "byteOffset": 427344,
      "componentType": 5126,
      "count": 184,
      "max": [
        -33.141998291015625,
        53.523399353027344,
        3.753000020980835
      ],
      "min": [
        -41.183799743652344,
        36.47600173950195,
        1.384469985961914
      ],
      "type": "VEC3"
    },
    {
      "bufferView": 2,
      "byteOffset": 429552,
      "componentType": 5126,
      "count": 184,
      "max": [
        1.0,
        0.9517826437950134,
        0.9974983334541321
      ],
      "min": [
        -1.0,
        -0.9974983334541321,
        -0.9974983334541321
      ],
      "type": "VEC3"
    },
    {
      "bufferView": 1,
      "byteOffset": 142448,
      "componentType": 5126,
      "count": 184,
      "max": [
        8.502610206604004,
        -4.98084020614624
      ],
      "min": [
        4.936429977416992,
        -34.06549835205078
      ],
      "type": "VEC2"
    },
    {
      "bufferView": 0,
      "byteOffset": 227268,
      "componentType": 5125,
      "count": 414,
      "type": "SCALAR"
    }
  ],
  "asset": {
    "extras": {
      "author": "DisneyCars (https://sketchfab.com/supercarmodels)",
      "license": "CC-BY-4.0 (http://creativecommons.org/licenses/by/4.0/)",
      "source": "https://sketchfab.com/3d-models/2010-mercedes-benz-sls-amg-gt3-fcc00546309e47f78031280810f9df79",
      "title": "2010 Mercedes-Benz SLS AMG GT3"
    },
    "generator": "Sketchfab-16.52.0",
    "version": "2.0"
  },
  "bufferViews": [
    {
      "buffer": 0,
      "byteLength": 228924,
      "name": "floatBufferViews",
      "target": 34963
    },
    {
      "buffer": 0,
      "byteLength": 143920,
      "byteOffset": 228924,
      "byteStride": 8,
      "name": "floatBufferViews",
      "target": 34962
    },
    {
      "buffer": 0,
      "byteLength": 431760,
      "byteOffset": 372844,
      "byteStride": 12,
      "name": "floatBufferViews",
      "target": 34962
    }
  ],
  "buffers": [
    {
      "byteLength": 804604,
      "uri": "scene.bin"
    }
  ],
  "extensionsUsed": [
    "KHR_materials_clearcoat"
  ],
  "images": [
    {
      "uri": "textures/Details1Mtl_baseColor.png"
    },
    {
      "uri": "textures/Light1Mtl_baseColor.png"
    },
    {
      "uri": "textures/Paintshadow1Mtl_baseColor.png"
    },
    {
      "uri": "textures/Paintshadow1Mtl_emissive.png"
    },
    {
      "uri": "textures/Wheels1Mtl_baseColor.png"
    }
  ],
  "materials": [
    {
      "doubleSided": true,
      "name": "Base1Mtl",
      "pbrMetallicRoughness": {
        "baseColorFactor": [
          0.0,
          0.0,
          0.0,
          1.0
        ]
      }
    },
    {
      "doubleSided": true,
      "emissiveTexture": {
        "index": 0
      },
      "name": "Details1Mtl",
      "pbrMetallicRoughness": {
        "baseColorTexture": {
          "index": 0
        },
        "metallicFactor": 0.0,
        "roughnessFactor": 0.0
      }
    },
    {
      "doubleSided": true,
      "emissiveTexture": {
        "index": 1
      },
      "name": "Light1Mtl",
      "pbrMetallicRoughness": {
        "baseColorTexture": {
          "index": 1
        },
        "metallicFactor": 0.0,
        "roughnessFactor": 0.0
      }
    },
    {
      "doubleSided": true,
      "extensions": {
        "KHR_materials_clearcoat": {
          "clearcoatFactor": 1.0,
          "clearcoatRoughnessFactor": 0.0
        }
      },
      "name": "Paint1Mtl",
      "pbrMetallicRoughness": {
        "baseColorFactor": [
          0.124741,
          0.113921,
          0.121986,
          1.0
        ],
        "metallicFactor": 0.5104761904761905,
        "roughnessFactor": 0.3798095238095238
      }
    },
    {
      "alphaMode": "BLEND",
      "doubleSided": true,
      "emissiveTexture": {
        "index": 3
      },
      "name": "Paintshadow1Mtl",
      "pbrMetallicRoughness": {
        "baseColorTexture": {
          "index": 2
        },
        "metallicFactor": 0.0
      }
    },
    {
      "doubleSided": true,
      "name": "Plate1Mtl",
      "pbrMetallicRoughness": {
        "baseColorFactor": [
          0.940601,
          0.940601,
          0.940601,
          1.0
        ],
        "roughnessFactor": 0.0
      }
    },
    {
      "doubleSided": true,
      "emissiveTexture": {
        "index": 4
      },
      "name": "Wheels1Mtl",
      "pbrMetallicRoughness": {
        "baseColorTexture": {
          "index": 4
        },
        "metallicFactor": 0.0,
        "roughnessFactor": 0.2883809523809524
      }
    },
    {
      "alphaMode": "BLEND",
      "doubleSided": true,
      "name": "Windows1Mtl",
      "pbrMetallicRoughness": {
        "baseColorFactor": [
          0.2438378681299503,
          0.2438378681299503,
          0.2438378681299503,
          0.501961
        ],
        "roughnessFactor": 0.0
      }
    }
  ],
  "meshes": [
    {
      "name": "Object_0",
      "primitives": [
        {
          "attributes": {
            "NORMAL": 1,
            "POSITION": 0,
            "TEXCOORD_0": 2
          },
          "indices": 3,
          "material": 1,
          "mode": 4
        }
      ]
    },
    {
      "name": "Object_1",
      "primitives": [
        {
          "attributes": {
            "NORMAL": 5,
            "POSITION": 4,
            "TEXCOORD_0": 6
          },
          "indices": 7,
          "material": 2,
          "mode": 4
        }
      ]
    },
    {
      "name": "Object_2",
      "primitives": [
        {
          "attributes": {
            "NORMAL": 9,
            "POSITION": 8,
            "TEXCOORD_0": 10
          },
          "indices": 11,
          "material": 3,
          "mode": 4
        }
      ]
    },
    {
      "name": "Object_3",
      "primitives": [
        {
          "attributes": {
            "NORMAL": 13,
            "POSITION": 12,
            "TEXCOORD_0": 14
          },
          "indices": 15,
          "material": 4,
          "mode": 4
        }
      ]
    },
    {
      "name": "Object_4",
      "primitives": [
        {
          "attributes": {
            "NORMAL": 17,
            "POSITION": 16,
            "TEXCOORD_0": 18
          },
          "indices": 19,
          "material": 6,
          "mode": 4
        }
      ]
    },
    {
      "name": "Object_5",
      "primitives": [
        {
          "attributes": {
            "NORMAL": 21,
            "POSITION": 20,
            "TEXCOORD_0": 22
          },
          "indices": 23,
          "material": 7,
          "mode": 4
        }
      ]
    },
    {
      "name": "Object_6",
      "primitives": [
        {
          "attributes": {
            "NORMAL": 25,
            "POSITION": 24,
            "TEXCOORD_0": 26
          },
          "indices": 27,
          "material": 0,
          "mode": 4
        }
      ]
    },
    {
      "name": "Object_7",
      "primitives": [
        {
          "attributes": {
            "NORMAL": 29,
            "POSITION": 28,
            "TEXCOORD_0": 30
          },
          "indices": 31,
          "material": 5,
          "mode": 4
        }
      ]
    }
  ],
  "nodes": [
    {
      "children": [
        1
      ],
      "matrix": [
        1.0,
        0.0,
        0.0,
        0.0,
        0.0,
        2.220446049250313e-16,
        -1.0,
        0.0,
        0.0,
        1.0,
        2.220446049250313e-16,
        0.0,
        0.0,
        0.0,
        0.0,
        1.0
      ],
      "name": "Sketchfab_model"
    },
    {
      "children": [
        2,
        3,
        4,
        5,
        6,
        7,
        8,
        9
      ],
      "name": "2010 Mercedes-Benz SLS AMG GT3.obj.cleaner.materialmerger.gles"
    },
    {
      "mesh": 0,
      "name": "Object_2"
    },
    {
      "mesh": 1,
      "name": "Object_3"
    },
    {
      "mesh": 2,
      "name": "Object_4"
    },
    {
      "mesh": 3,
      "name": "Object_5"
    },
    {
      "mesh": 4,
      "name": "Object_6"
    },
    {
      "mesh": 5,
      "name": "Object_7"
    },
    {
      "mesh": 6,
      "name": "Object_8"
    },
    {
      "mesh": 7,
      "name": "Object_9"
    }
  ],
  "samplers": [
    {
      "magFilter": 9729,
      "minFilter": 9987,
      "wrapS": 10497,
      "wrapT": 10497
    }
  ],
  "scene": 0,
  "scenes": [
    {
      "name": "Sketchfab_Scene",
      "nodes": [
        0
      ]
    }
  ],
  "textures": [
    {
      "sampler": 0,
      "source": 0
    },
    {
      "sampler": 0,
      "source": 1
    },
    {
      "sampler": 0,
      "source": 2
    },
    {
      "sampler": 0,
      "source": 3
    },
    {
      "sampler": 0,
      "source": 4
    }
  ]
}
